# xmcd
#
# Track frame offsets:
# 150
# 7850
# 17828
# 29745
# 38145
# 50443
# 63583
# 78238
# 87430
# 97285
# 109233
# 120090
# 129323
# 140988
# 151543
# 162418
# 172333
# 181538
# 192040
# 200693
#
# Disc length: 2814 seconds
#
# Revision: 3
# Processed by: cddbd v1.5.2PL0 Copyright (c) Steve Scherf et al.
# Submitted via: Axialis_AX_CDPlayer 2.6
#
DISCID=0b0afc14
DTITLE=Art Neville - His Specialty Recordings
DYEAR=1992
DGENRE=R&B
TTITLE0=Please Believe Me
TTITLE1=Standing On The Highway
TTITLE2=Please Don't Go
TTITLE3=When My Baby Went Away
TTITLE4=Please Listen To My Song
TTITLE5=A Lover's Story
TTITLE6=Oooh-Whee Baby
TTITLE7=The Whiffenpoof Song
TTITLE8=Oooh-Whee Baby
TTITLE9=Let's Rock
TTITLE10=Back Home To Me
TTITLE11=Zing Zing
TTITLE12=Cha Dooky Doo
TTITLE13=That Old Time Rock 'N' Roll
TTITLE14=Arabian Love Call
TTITLE15=Rockin' Pneumonia And The Boogie Woogie Flu
TTITLE16=What's Going On
TTITLE17=Belle Amie
TTITLE18=The Dummy
TTITLE19=I'm A Fool To Care
EXTD=
EXTT0=
EXTT1=
EXTT2=
EXTT3=
EXTT4=
EXTT5=
EXTT6=
EXTT7=
EXTT8=
EXTT9=
EXTT10=
EXTT11=
EXTT12=
EXTT13=
EXTT14=
EXTT15=With Larry Williams
EXTT16=
EXTT17=
EXTT18=
EXTT19=
PLAYORDER=
